# xmcd
#
# Track frame offsets:
#	150
#	14349
#	32444
#	52591
#	67940
#	93653
#	112020
#	130826
#	153578
#	169195
#	191721
#	209194
#	221145
#	234661
#	248302
#	269708
#	285749
#	305728
#	323165
#
# Disc length: 4676 seconds
#
# Revision: 1
# Processed by: cddbd v1.4PL0 Copyright (c) Steve Scherf et al.
# Submitted via: MusicWizard 6.0.0
#
DISCID=1b124213
DTITLE=Various Artist - Don't Stop The 80's [CD 1/2)
DYEAR=1900
DGENRE=
TTITLE0=Camouflage125 - The Great Commandment125
TTITLE1=New Order - True Faith
TTITLE2=Duran Duran - The wild Boys
TTITLE3=erasure - Oh L'Amour
TTITLE4=talk Talk - such a shame
TTITLE5=tears for fears - shout
TTITLE6=thompson Twins - hold me now
TTITLE7=a flockof seagulls - i ran
TTITLE8=ABC - the look of love (Part 1)
TTITLE9=ultravox - Dancing with tears in my eyes
TTITLE10=frankie goes to Hollywood - relax
TTITLE11=soft cell - tainted love
TTITLE12=yazoo - don't go
TTITLE13=living In A Box - living In A Box
TTITLE14=spandau Ballet - gold
TTITLE15=trans-X - living on video
TTITLE16=you spin me round - dead or alive
TTITLE17=Visage - fade to grey
TTITLE18=hypnotic tango - my mine
EXTD=
EXTT0=
EXTT1=
EXTT2=
EXTT3=
EXTT4=
EXTT5=
EXTT6=
EXTT7=
EXTT8=
EXTT9=
EXTT10=
EXTT11=
EXTT12=
EXTT13=
EXTT14=
EXTT15=
EXTT16=
EXTT17=
EXTT18=
PLAYORDER=
